<?xml version="1.0" standalone="no"?>
<!DOCTYPE svg PUBLIC "-//W3C//DTD SVG 20010904//EN"
 "http://www.w3.org/TR/2001/REC-SVG-20010904/DTD/svg10.dtd">
<svg version="1.0" xmlns="http://www.w3.org/2000/svg"
 width="340.000000pt" height="340.000000pt" viewBox="0 0 340.000000 340.000000"
 preserveAspectRatio="xMidYMid meet">
<metadata>

</metadata>
<g transform="translate(0.000000,340.000000) scale(0.100000,-0.100000)"
fill="#000000" stroke="none">
<path d="M1485 3394 c-99 -15 -241 -48 -332 -79 -519 -174 -923 -589 -1082
-1112 -59 -195 -66 -246 -65 -508 0 -268 10 -337 79 -542 168 -502 566 -900
1068 -1068 208 -69 274 -79 547 -79 216 0 257 3 344 22 609 136 1079 552 1271
1125 69 208 79 274 79 547 0 273 -10 339 -79 547 -168 502 -566 900 -1068
1068 -192 64 -277 78 -517 80 -118 2 -228 1 -245 -1z m331 -542 c28 -15 167
-94 308 -177 l257 -149 -3 -596 -3 -595 -24 -42 c-27 -48 -45 -61 -218 -162
l-122 -71 -88 51 c-48 28 -98 58 -111 66 -23 14 -19 17 130 104 212 124 203
111 211 299 4 84 7 302 7 484 l-1 331 -225 130 c-124 72 -231 129 -237 127 -5
-2 -210 -120 -455 -263 -244 -143 -449 -261 -455 -262 -17 -3 -39 84 -33 131
7 50 35 109 68 139 22 20 762 457 803 474 11 4 47 8 80 8 47 0 71 -5 111 -27z
m-55 -444 c19 -6 91 -45 162 -86 l127 -75 0 -123 c0 -69 -4 -124 -9 -124 -5 0
-56 27 -113 61 -147 87 -193 109 -229 109 -23 0 -142 -65 -445 -242 l-414
-241 0 -268 0 -267 449 -263 449 -262 -21 -29 c-12 -16 -45 -40 -74 -54 -44
-22 -63 -26 -115 -22 -61 4 -74 10 -438 222 -206 120 -389 232 -407 249 -59
56 -60 63 -68 418 -7 312 -7 328 13 371 11 25 32 54 48 65 57 39 940 550 969
561 40 14 75 14 116 0z m882 -201 c47 -20 95 -64 120 -111 22 -41 22 -42 19
-516 -3 -354 -7 -482 -16 -505 -7 -16 -31 -45 -52 -64 -37 -32 -592 -359 -624
-368 -9 -2 -238 126 -510 285 -430 251 -499 295 -525 331 l-30 43 -3 182 -4
183 105 62 c58 33 108 61 111 61 3 0 6 -65 6 -144 0 -191 10 -242 54 -281 32
-29 755 -457 782 -463 7 -2 114 56 238 128 156 91 226 137 231 153 4 12 10
250 12 530 l5 507 24 0 c14 0 39 -6 57 -13z"/>
</g>
</svg>
